ply
format ascii 1.0
comment Created by Open3D
element vertex 20
property double x
property double y
property double z
end_header
-0.0193131 -1 0.829353
-0.192164 -1 -0.815239
0.173946 -1 -0.157717
-0.912698 -1 -0.621336
0.695515 -1 0.575382
-0.291077 -1 -0.921056
0.0103926 -1 -0.60688
-0.69787 -1 -0.424774
-0.57376 -1 -0.590177
-0.21852 -1 -0.712795
0.821363 -1 -0.437373
0.148023 -1 0.657682
0.0391593 -1 -0.34925
0.489582 -1 -0.791881
-0.859729 -1 0.101784
0.14669 -1 0.102553
-0.440149 -1 0.682796
0.515119 -1 0.0923622
0.449377 -1 0.798233
-0.190845 -1 0.368449
